<svg id="visual" viewBox="0 0 900 600" width="900" height="600" xmlns="http://www.w3.org/2000/svg" xmlns:xlink="http://www.w3.org/1999/xlink" version="1.1"><rect x="0" y="0" width="900" height="600" fill="#334155"></rect><g transform="translate(-39.94000358858085 -29.142900748080763)"><path d="M177.8 -301.3C229.8 -243.2 270.9 -192.9 314 -133.2C357.1 -73.5 402.3 -4.6 388.1 51.9C373.8 108.4 300.3 152.4 243 200.7C185.8 249 144.9 301.5 78.9 364.7C13 427.9 -78 501.8 -145.4 486.1C-212.7 470.5 -256.4 365.2 -279.8 276.7C-303.3 188.2 -306.6 116.4 -309.2 49C-311.8 -18.4 -313.7 -81.3 -296.4 -142.1C-279.1 -202.9 -242.5 -261.7 -189.9 -319.5C-137.3 -377.3 -68.7 -434.2 -2.9 -429.7C62.9 -425.2 125.8 -359.4 177.8 -301.3" fill="#64748B"></path></g></svg>