<svg id="visual" viewBox="0 0 900 600" width="900" height="600" xmlns="http://www.w3.org/2000/svg" xmlns:xlink="http://www.w3.org/1999/xlink" version="1.1"><rect x="0" y="0" width="900" height="600" fill="#64748B"></rect><defs><linearGradient id="grad1_0" x1="33.3%" y1="100%" x2="100%" y2="0%"><stop offset="20%" stop-color="#64748b" stop-opacity="1"></stop><stop offset="80%" stop-color="#64748b" stop-opacity="1"></stop></linearGradient></defs><defs><linearGradient id="grad2_0" x1="0%" y1="100%" x2="66.7%" y2="0%"><stop offset="20%" stop-color="#64748b" stop-opacity="1"></stop><stop offset="80%" stop-color="#64748b" stop-opacity="1"></stop></linearGradient></defs><g transform="translate(900, 600)"><path d="M-378.6 0C-340.4 -29 -302.1 -58 -293.9 -95.5C-285.6 -133 -307.3 -179 -301 -218.7C-294.6 -258.3 -260.3 -291.5 -222.5 -306.3C-184.8 -321 -143.6 -317.2 -106 -326.2C-68.3 -335.2 -34.2 -356.9 0 -378.6L0 0Z" fill="#334155"></path></g><g transform="translate(0, 0)"><path d="M378.6 0C366.9 39.6 355.1 79.3 332.9 108.2C310.6 137 277.8 155.2 261.3 189.9C244.8 224.5 244.7 275.6 222.5 306.3C200.4 336.9 156.3 347.1 115.6 355.7C74.8 364.3 37.4 371.5 0 378.6L0 0Z" fill="#334155"></path></g></svg>