<svg id="visual" viewBox="0 0 900 600" width="900" height="600" xmlns="http://www.w3.org/2000/svg" xmlns:xlink="http://www.w3.org/1999/xlink" version="1.1"><rect x="0" y="0" width="900" height="600" fill="#64748B"></rect><defs><linearGradient id="grad1_0" x1="33.3%" y1="100%" x2="100%" y2="0%"><stop offset="20%" stop-color="#64748b" stop-opacity="1"></stop><stop offset="80%" stop-color="#64748b" stop-opacity="1"></stop></linearGradient></defs><defs><linearGradient id="grad2_0" x1="0%" y1="100%" x2="66.7%" y2="0%"><stop offset="20%" stop-color="#64748b" stop-opacity="1"></stop><stop offset="80%" stop-color="#64748b" stop-opacity="1"></stop></linearGradient></defs><g transform="translate(900, 600)"><path d="M-432.7 0C-413.8 -35 -395 -70 -374.8 -100.4C-354.6 -130.8 -333 -156.5 -312.6 -180.5C-292.3 -204.5 -273.1 -226.7 -257.4 -257.4C-241.7 -288 -229.4 -327.1 -206 -356.8C-182.6 -386.5 -148.2 -406.8 -112 -417.9C-75.8 -429 -37.9 -430.8 0 -432.7L0 0Z" fill="#334155"></path></g><g transform="translate(0, 0)"><path d="M432.7 0C433.2 38.9 433.7 77.8 417.9 112C402.2 146.1 370.1 175.5 339.5 196C308.8 216.5 279.5 228.3 262.3 262.3C245.1 296.4 240 352.7 213 368.9C186 385.1 137 361.2 97.8 365.1C58.7 369.1 29.3 400.9 0 432.7L0 0Z" fill="#334155"></path></g></svg>