<svg id="visual" viewBox="0 0 900 600" width="900" height="600" xmlns="http://www.w3.org/2000/svg" xmlns:xlink="http://www.w3.org/1999/xlink" version="1.1"><rect x="0" y="0" width="900" height="600" fill="#64748B"></rect><defs><linearGradient id="grad1_0" x1="33.3%" y1="100%" x2="100%" y2="0%"><stop offset="20%" stop-color="#64748b" stop-opacity="1"></stop><stop offset="80%" stop-color="#64748b" stop-opacity="1"></stop></linearGradient></defs><defs><linearGradient id="grad2_0" x1="0%" y1="100%" x2="66.7%" y2="0%"><stop offset="20%" stop-color="#64748b" stop-opacity="1"></stop><stop offset="80%" stop-color="#64748b" stop-opacity="1"></stop></linearGradient></defs><g transform="translate(900, 600)"><path d="M-378.6 0C-344.5 -22.4 -310.4 -44.8 -294.4 -67.2C-278.5 -89.6 -280.7 -111.9 -274.8 -132.3C-268.9 -152.8 -254.8 -171.3 -246.3 -196.4C-237.7 -221.5 -234.7 -253.2 -222 -278.3C-209.2 -303.5 -186.7 -322.1 -162.3 -337C-137.9 -351.8 -111.6 -362.8 -84.2 -369.1C-56.9 -375.4 -28.4 -377 0 -378.6L0 0Z" fill="#334155"></path></g><g transform="translate(0, 0)"><path d="M378.6 0C377.1 28.6 375.6 57.2 369.1 84.2C362.6 111.2 351.1 136.6 337.9 162.7C324.6 188.8 309.6 215.6 281.5 224.5C253.3 233.3 212.1 224.1 190.2 238.5C168.2 252.8 165.4 290.6 149.7 310.8C133.9 331.1 105.2 333.8 78.1 342.2C51 350.6 25.5 364.6 0 378.6L0 0Z" fill="#334155"></path></g></svg>